# xmcd
#
# Track frame offsets:
#	183
#	11995
#	24483
#	36508
#	46420
#	61945
#	72870
#	84270
#	97195
#	108070
#	119495
#	131070
#	144395
#	154895
#	167183
#	177295
#	189233
#	201920
#	214420
#	224770
#	235358
#	244670
#	259658
#
# Disc length: 3607 seconds
#
# Revision: 6
# Processed by: cddbd v1.4PL0 Copyright (c) Steve Scherf et al.
# Submitted via: audiograbber 1.81.03
#
DISCID=5a0e1517
DTITLE=Various Artist - On The Highway vol. 2
DYEAR=1900
DGENRE=
TTITLE0=Don Gibson - Oh lonesome me
TTITLE1=JIM Reeves - I love you because
TTITLE2=Dolly Parton - Makin' believe
TTITLE3=Johnny Cash - Ballad of a teenage queen
TTITLE4=Anne Murray - There goes my everything
TTITLE5=George Jones - Tender years
TTITLE6=Patti Page - Mockingbird Hill
TTITLE7=Don Williams - Ruby Tuesday
TTITLE8=Donna Fargo - All that's keeping me alive
TTITLE9=Jim Reeves - Adios amigo
TTITLE10=Willie Nelson - Is there something on your mind
TTITLE11=Jimmy Dean - Big bad John
TTITLE12=Jimmy Rogers - Kisses sweeter than wine
TTITLE13=Dolly Parton - Two little orphans
TTITLE14=Faron Young - Hallo walls
TTITLE15=Conway Twitty - You made me what I am
TTITLE16=Patti Page - Gentle on my mind
TTITLE17=Johnny Cash - Folsom prison blues
TTITLE18=Ferlin Husky - Wings of a dove
TTITLE19=Patsi Cline - Honky tonk merry go round
TTITLE20=George Jones - The race is on
TTITLE21=Willie Nelson - Face of a fighter
TTITLE22=Don Williams - Always something there to remind me
EXTD=
EXTT0=
EXTT1=
EXTT2=
EXTT3=
EXTT4=
EXTT5=
EXTT6=
EXTT7=
EXTT8=
EXTT9=
EXTT10=
EXTT11=
EXTT12=
EXTT13=
EXTT14=
EXTT15=
EXTT16=
EXTT17=
EXTT18=
EXTT19=
EXTT20=
EXTT21=
EXTT22=
PLAYORDER=
